<svg xmlns="http://www.w3.org/2000/svg" width="60" height="61" fill="none" viewBox="0 0 60 61">
  <path fill="#54B4F9" d="M19.956 7.594v7.089H18.21V7.594H8.622v21.277h9.588v-7.094h1.746v7.094h9.588V7.594h-9.588ZM31.29 28.871 41.754 7.594l10.464 21.277H31.29Zm-.018 24.583v-21.27H52.2l-6.102 10.632L52.2 53.454H31.272ZM25.17 42.816l4.092-6.552c-2.046-3.007-5.46-4.971-9.324-4.971-6.258 0-11.334 5.16-11.334 11.523 0 6.362 5.076 11.523 11.334 11.523 3.864 0 7.278-1.97 9.324-4.972l-4.092-6.551Z"/>
  <path fill="#54B4F9" d="M59.58 61H.36V0h59.22v61ZM2.7 58.987h54.48V2.013H2.7v56.974Z"/>
</svg>
